<?xml version="1.0" encoding="utf-8"?>
<!-- Generator: Adobe Illustrator 22.1.0, SVG Export Plug-In . SVG Version: 6.00 Build 0)  -->
<svg version="1.1" xmlns="http://www.w3.org/2000/svg" xmlns:xlink="http://www.w3.org/1999/xlink" x="0px" y="0px"
	 viewBox="0 0 2272 1872" style="enable-background:new 0 0 2272 1872;" xml:space="preserve">
<style type="text/css">
	.st0{fill:#FEC83D;}
	.st1{clip-path:url(#SVGID_2_);}
	.st2{fill:#BBDFFE;}
	.st3{fill:#FCB3BB;}
	.st4{fill:#FFFDA8;}
	.st5{fill:#B0E1FE;}
	.st6{fill:#B9FFC9;}
	.st7{fill:#FFFFFF;}
	.st8{fill:#FFADBC;}
	.st9{fill:#FEF988;}
	.st10{fill:#BCB3FF;}
</style>
<g id="Background">
</g>
<g id="object">
	<g>
		<g>
			<g>
				<path class="st0" d="M2272.5,1872.5H-0.5V-0.5h2273V1872.5z M0.5,1871.5h2271V0.5H0.5V1871.5z"/>
			</g>
		</g>
	</g>
	<g>
		<defs>
			<rect id="SVGID_1_" x="0" width="2272" height="1872"/>
		</defs>
		<clipPath id="SVGID_2_">
			<use xlink:href="#SVGID_1_"  style="overflow:visible;"/>
		</clipPath>
		<g class="st1">
			<g>
				<g>
					<polygon class="st2" points="2232.7,152.8 2255.9,112.6 1949.4,237.3 1963.8,262.2 					"/>
				</g>
				<g>
					<polygon class="st2" points="2268.6,90.7 2291.8,50.5 1927.2,198.8 1941.6,223.7 					"/>
				</g>
				<g>
					<polygon class="st2" points="2203.1,204.1 2217.2,179.7 2220.1,174.8 1971.6,275.8 1982.1,294 					"/>
				</g>
				<g>
					<polygon class="st2" points="2324.3,-74.6 2321.7,-81.1 2285.1,-81.1 1864.4,90 1874.9,108.2 					"/>
				</g>
				<g>
					<polygon class="st2" points="2340.3,-33.5 2340.7,-34.3 2330.2,-60.2 1882.7,121.8 1897.1,146.7 					"/>
				</g>
				<g>
					<polygon class="st2" points="2327.7,-11.6 1904.9,160.3 1916.1,179.7 1919.3,185.2 2304.5,28.6 					"/>
				</g>
				<g>
					<polygon class="st2" points="2137.8,-81.1 2066.7,-81.1 2062.2,-81.1 1822,16.6 1836.4,41.5 					"/>
				</g>
				<g>
					<polygon class="st2" points="2020.9,-81.1 1945.3,-81.1 1799.8,-21.9 1814.2,3 					"/>
				</g>
				<g>
					<polygon class="st2" points="2179.1,-81.1 1844.2,55.1 1854.7,73.3 2234.3,-81.1 					"/>
				</g>
				<g>
					<polygon class="st2" points="2081.6,414.7 2057.5,424.5 2066.7,440.4 					"/>
				</g>
				<g>
					<polygon class="st2" points="2166,268.5 2182.9,239.1 1994.7,315.7 2005.2,333.9 					"/>
				</g>
				<g>
					<polygon class="st2" points="2130.1,330.6 2153.3,290.4 2013,347.5 2027.4,372.4 					"/>
				</g>
				<g>
					<polygon class="st2" points="2094.2,392.7 2117.4,352.5 2035.2,386 2049.6,410.9 					"/>
				</g>
			</g>
			<g>
				<circle class="st3" cx="276.8" cy="1601.5" r="391"/>
			</g>
			<g>
				<ellipse class="st4" cx="276.8" cy="1601.5" rx="297.1" ry="315.5"/>
			</g>
			<g>
				<ellipse class="st5" cx="276.8" cy="1601.5" rx="203.3" ry="215.9"/>
			</g>
			<g>
				<g>
					<rect x="427.8" y="1591.2" class="st6" width="325.7" height="39.8"/>
				</g>
				<g>
					<rect x="427.8" y="1529.7" class="st6" width="325.7" height="39.8"/>
				</g>
				<g>
					<rect x="427.8" y="1652.7" class="st6" width="325.7" height="29"/>
				</g>
				<g>
					<rect x="427.8" y="1356" class="st6" width="325.7" height="29"/>
				</g>
				<g>
					<rect x="427.8" y="1406.7" class="st6" width="325.7" height="39.8"/>
				</g>
				<g>
					<rect x="427.8" y="1468.2" class="st6" width="325.7" height="39.8"/>
				</g>
			</g>
			<g>
				<rect x="676.5" y="1194.5" class="st5" width="135.5" height="135.5"/>
			</g>
			<g>
				<rect x="785.6" y="1356" class="st4" width="101.3" height="101.3"/>
			</g>
			<g>
				<rect x="299.7" y="308.8" class="st3" width="174.1" height="174.1"/>
			</g>
			<g>
				<rect x="-139.1" y="-197.4" class="st6" width="557" height="557"/>
			</g>
			<g>
				
					<rect x="1476.5" y="1471.6" transform="matrix(0.813 0.5822 -0.5822 0.813 1283.093 -661.7292)" class="st5" width="390.7" height="390.7"/>
			</g>
			<g>
				
					<rect x="1706.2" y="1214.3" transform="matrix(0.813 0.5822 -0.5822 0.813 1311.3307 -912.9723)" class="st6" width="742" height="742"/>
			</g>
			<g>
				<path class="st7" d="M2145.6,1998.8l-481.9-345.1l345.1-481.9l481.9,345.1L2145.6,1998.8z M1727.8,1643.1l407.1,291.6
					l291.6-407.1L2019.4,1236L1727.8,1643.1z"/>
			</g>
			<g>
				<path class="st7" d="M2122.7,1860.3l-320.5-229.5l229.5-320.5l320.5,229.5L2122.7,1860.3z M1866.3,1620.2l245.7,176l176-245.7
					l-245.7-176L1866.3,1620.2z"/>
			</g>
			<g>
				<rect x="105.9" y="293.9" class="st4" width="144.8" height="144.8"/>
			</g>
			<g>
				<polygon class="st4" points="1863.5,185.2 1923.4,293.4 1799.8,291.2 1676.1,289 1739.9,183 1803.6,77 				"/>
			</g>
			<g>
				<polygon class="st8" points="2194.5,533.8 2260.1,429 2136.5,424.5 2012.9,420 2070.9,529.3 2128.8,638.6 				"/>
			</g>
			<g>
				
					<rect x="2053.2" y="1051.8" transform="matrix(0.813 0.5822 -0.5822 0.813 1074.2812 -1038.8571)" class="st9" width="203" height="203"/>
			</g>
			<g>
				<g>
					<rect x="299.7" y="220.1" class="st5" width="233.3" height="28.5"/>
				</g>
				<g>
					<rect x="299.7" y="176" class="st5" width="233.3" height="28.5"/>
				</g>
				<g>
					<rect x="299.7" y="264.1" class="st5" width="233.3" height="20.8"/>
				</g>
				<g>
					<rect x="299.7" y="51.6" class="st5" width="233.3" height="20.8"/>
				</g>
				<g>
					<rect x="299.7" y="88" class="st5" width="233.3" height="28.5"/>
				</g>
				<g>
					<rect x="299.7" y="132" class="st5" width="233.3" height="28.5"/>
				</g>
			</g>
			<g>
				<path class="st5" d="M208.3,561.4h-16.8c-2.2,0-4-1.8-4-4v-16.8c0-2.2-1.8-4-4-4s-4,1.8-4,4v16.8c0,2.2-1.8,4-4,4h-16.8
					c-2.2,0-4,1.8-4,4v0c0,2.2,1.8,4,4,4h16.8c2.2,0,4,1.8,4,4v16.8c0,2.2,1.8,4,4,4s4-1.8,4-4v-16.8c0-2.2,1.8-4,4-4h16.8
					c2.2,0,4-1.8,4-4v0C212.3,563.2,210.5,561.4,208.3,561.4z"/>
			</g>
			<g>
				<path class="st5" d="M620.6,112.4h-16.8c-2.2,0-4-1.8-4-4V91.6c0-2.2-1.8-4-4-4s-4,1.8-4,4v16.8c0,2.2-1.8,4-4,4h-16.8
					c-2.2,0-4,1.8-4,4v0c0,2.2,1.8,4,4,4h16.8c2.2,0,4,1.8,4,4v16.8c0,2.2,1.8,4,4,4s4-1.8,4-4v-16.8c0-2.2,1.8-4,4-4h16.8
					c2.2,0,4-1.8,4-4v0C624.6,114.2,622.8,112.4,620.6,112.4z"/>
			</g>
			<g>
				<path class="st5" d="M533.8,1149.3H517c-2.2,0-4-1.8-4-4v-16.8c0-2.2-1.8-4-4-4s-4,1.8-4,4v16.8c0,2.2-1.8,4-4,4h-16.8
					c-2.2,0-4,1.8-4,4v0c0,2.2,1.8,4,4,4H501c2.2,0,4,1.8,4,4v16.8c0,2.2,1.8,4,4,4s4-1.8,4-4v-16.8c0-2.2,1.8-4,4-4h16.8
					c2.2,0,4-1.8,4-4v0C537.8,1151,536,1149.3,533.8,1149.3z"/>
			</g>
			<g>
				<path class="st5" d="M1729.8,1287.1H1713c-2.2,0-4-1.8-4-4v-16.8c0-2.2-1.8-4-4-4s-4,1.8-4,4v16.8c0,2.2-1.8,4-4,4h-16.8
					c-2.2,0-4,1.8-4,4v0c0,2.2,1.8,4,4,4h16.8c2.2,0,4,1.8,4,4v16.8c0,2.2,1.8,4,4,4s4-1.8,4-4v-16.8c0-2.2,1.8-4,4-4h16.8
					c2.2,0,4-1.8,4-4v0C1733.8,1288.9,1732,1287.1,1729.8,1287.1z"/>
			</g>
			<g>
				<path class="st5" d="M1928.9,478.9h-16.8c-2.2,0-4-1.8-4-4v-16.8c0-2.2-1.8-4-4-4s-4,1.8-4,4v16.8c0,2.2-1.8,4-4,4h-16.8
					c-2.2,0-4,1.8-4,4v0c0,2.2,1.8,4,4,4h16.8c2.2,0,4,1.8,4,4v16.8c0,2.2,1.8,4,4,4s4-1.8,4-4v-16.8c0-2.2,1.8-4,4-4h16.8
					c2.2,0,4-1.8,4-4v0C1932.9,480.7,1931.1,478.9,1928.9,478.9z"/>
			</g>
		</g>
		<use xlink:href="#SVGID_1_"  style="overflow:visible;fill:none;stroke:#BCB3FF;stroke-miterlimit:10;"/>
	</g>
	<circle class="st10" cx="2135.9" cy="897.4" r="65.1"/>
	<circle class="st10" cx="121.8" cy="784.6" r="65.1"/>
	<circle class="st3" cx="121.8" cy="979.8" r="24.7"/>
	<circle class="st3" cx="2135.9" cy="749.3" r="24.7"/>
	<g>
		<circle class="st10" cx="1007.4" cy="1695.5" r="65.1"/>
		<circle class="st3" cx="1151.1" cy="1695.5" r="24.7"/>
	</g>
	<g>
		<circle class="st10" cx="1007.4" cy="111.7" r="65.1"/>
		<circle class="st10" cx="1468.6" cy="111.7" r="65.1"/>
		<circle class="st3" cx="1151.1" cy="111.7" r="24.7"/>
		<circle class="st3" cx="743.5" cy="111.7" r="24.7"/>
	</g>
</g>
</svg>
